<svg width="30" height="30" viewBox="0 0 30 30" fill="none" xmlns="http://www.w3.org/2000/svg">
<path d="M29.079 26.7575L22.5862 20.262C24.5329 17.7251 25.4418 14.5427 25.1285 11.3604C24.8151 8.17806 23.303 5.23406 20.8989 3.12562C18.4947 1.01717 15.3786 -0.0978522 12.1826 0.00674593C8.98656 0.111344 5.94999 1.42773 3.68886 3.68886C1.42773 5.94999 0.111344 8.98656 0.00674593 12.1826C-0.0978522 15.3786 1.01717 18.4947 3.12562 20.8989C5.23406 23.303 8.17806 24.8151 11.3604 25.1285C14.5427 25.4418 17.7251 24.5329 20.262 22.5862L26.7602 29.0858C26.9128 29.2384 27.094 29.3595 27.2934 29.442C27.4928 29.5246 27.7065 29.5671 27.9223 29.5671C28.1381 29.5671 28.3518 29.5246 28.5512 29.442C28.7506 29.3595 28.9318 29.2384 29.0844 29.0858C29.237 28.9332 29.3581 28.752 29.4407 28.5526C29.5233 28.3532 29.5658 28.1395 29.5658 27.9237C29.5658 27.7079 29.5233 27.4941 29.4407 27.2947C29.3581 27.0954 29.237 26.9142 29.0844 26.7616L29.079 26.7575ZM3.30883 12.6057C3.30883 10.767 3.85409 8.9695 4.87564 7.44064C5.89719 5.91178 7.34917 4.72017 9.04795 4.01652C10.7467 3.31286 12.616 3.12875 14.4194 3.48747C16.2229 3.84619 17.8794 4.73163 19.1796 6.03183C20.4798 7.33202 21.3652 8.98856 21.7239 10.792C22.0827 12.5954 21.8986 14.4647 21.1949 16.1635C20.4912 17.8623 19.2996 19.3142 17.7708 20.3358C16.2419 21.3573 14.4445 21.9026 12.6057 21.9026C10.1408 21.9 7.77758 20.9197 6.03462 19.1768C4.29167 17.4338 3.31137 15.0706 3.30883 12.6057Z" fill="#182F51"/>
</svg>
