<svg width="15" height="15" viewBox="0 0 15 15" fill="none" xmlns="http://www.w3.org/2000/svg">
<path d="M4.77366 0.0125253C5.65505 -0.129021 6.58873 0.945067 6.85763 2.42714C7.12653 3.90089 6.64102 5.21644 5.75962 5.36631C4.8857 5.51618 3.94455 4.4421 3.66818 2.96002C3.39181 1.48627 3.89226 0.170724 4.77366 0.0125253ZM10.1143 0.0125253C11.0032 0.170724 11.4961 1.48627 11.2347 2.96002C10.9509 4.4421 10.0172 5.51618 9.13581 5.36631C8.24694 5.21644 7.76143 3.90089 8.0378 2.42714C8.3067 0.945067 9.24038 -0.129021 10.1143 0.0125253ZM0.77751 3.84261C1.62903 3.43462 2.78679 4.17566 3.39181 5.46623C3.95949 6.78178 3.76528 8.16394 2.92124 8.57192C2.07719 8.97991 0.926899 8.2472 0.336813 6.93997C-0.253272 5.63275 -0.0441279 4.24227 0.77751 3.84261ZM14.2225 3.84261C15.0441 4.24227 15.2533 5.63275 14.6632 6.93997C14.0731 8.2472 12.9228 8.97991 12.0788 8.57192C11.2347 8.16394 11.0405 6.78178 11.6082 5.46623C12.2132 4.17566 13.371 3.43462 14.2225 3.84261ZM12.9751 12.8183C13.005 13.601 12.4672 14.4669 11.8248 14.7916C10.4878 15.4744 8.90425 14.0589 7.41784 14.0589C5.93142 14.0589 4.33296 15.5327 3.01834 14.7916C2.2714 14.3837 1.75601 13.3012 1.85311 12.402C1.98756 11.1614 3.32459 10.4953 4.11635 9.58773C5.16954 8.41372 5.91648 6.20726 7.41784 6.20726C8.91172 6.20726 9.70348 8.38042 10.7119 9.58773C11.541 10.6035 12.9228 11.4611 12.9751 12.8183Z" fill="#E83525"/>
</svg>
