<svg width="102" height="102" viewBox="0 0 102 102" fill="none" xmlns="http://www.w3.org/2000/svg">
<path d="M11.3333 102C8.21667 102 5.54956 100.891 3.332 98.6737C1.11444 96.4561 0.00377778 93.7871 0 90.6667V11.3333C0 8.21667 1.11067 5.54956 3.332 3.332C5.55333 1.11444 8.22044 0.00377778 11.3333 0H62.3333C60.4444 2.45556 59.0278 5.14722 58.0833 8.075C57.1389 11.0028 56.6667 13.9778 56.6667 17C56.6667 24.8389 59.4301 31.5218 64.957 37.0487C70.4839 42.5756 77.1649 45.3371 85 45.3333C88.0222 45.3333 90.9972 44.8611 93.925 43.9167C96.8528 42.9722 99.5444 41.5555 102 39.6667V90.6667C102 93.7833 100.891 96.4523 98.6737 98.6737C96.4561 100.895 93.7871 102.004 90.6667 102H11.3333ZM17 79.3333H85L63.75 51L46.75 73.6667L34 56.6667L17 79.3333ZM79.3333 34V22.6667H68V11.3333H79.3333V0H90.6667V11.3333H102V22.6667H90.6667V34H79.3333Z" fill="#F6F6F6"/>
</svg>
