<svg width="51" height="48" viewBox="0 0 51 48" fill="none" xmlns="http://www.w3.org/2000/svg">
<ellipse cx="25.5" cy="24" rx="25.5" ry="24" fill="#FDFEF9"/>
<ellipse cx="25.5" cy="24" rx="22.3125" ry="21" fill="#7BB75A"/>
<path d="M27.2212 16.1795L32.8862 22.0215L19.6651 35.6557H14.0001V29.8123L27.2212 16.1795ZM29.1095 14.2307L31.942 11.3097C32.1925 11.0515 32.5321 10.9065 32.8862 10.9065C33.2403 10.9065 33.5799 11.0515 33.8304 11.3097L37.6084 15.2044C37.7326 15.3323 37.8311 15.4842 37.8983 15.6514C37.9655 15.8186 38.0001 15.9978 38.0001 16.1788C38.0001 16.3598 37.9655 16.539 37.8983 16.7062C37.8311 16.8733 37.7326 17.0252 37.6084 17.1531L34.7746 20.0742L29.1095 14.2307Z" fill="#FDFEF9"/>
</svg>
