<svg width="32" height="32" viewBox="0 0 32 32" fill="none" xmlns="http://www.w3.org/2000/svg">
<path d="M28.2791 18.8C28.2791 18.4817 28.1615 18.1765 27.9521 17.9515C27.7428 17.7264 27.4588 17.6 27.1628 17.6H22.6977C22.4016 17.6 22.1177 17.7264 21.9083 17.9515C21.699 18.1765 21.5814 18.4817 21.5814 18.8V29.6H19.3488V3.6C19.3488 2.4352 19.3459 1.68 19.2774 1.1264C19.2119 0.6064 19.1062 0.4432 19.0214 0.352C18.9366 0.2608 18.7847 0.1472 18.301 0.0768002C17.7846 0.00320016 17.0835 0 16 0C14.9165 0 14.214 0.00320016 13.699 0.0768002C13.2153 0.1472 13.0634 0.2608 12.9786 0.352C12.8938 0.4432 12.7881 0.6064 12.7226 1.1264C12.6541 1.6816 12.6512 2.4352 12.6512 3.6V29.6H10.4186V10.8C10.4186 10.4817 10.301 10.1765 10.0917 9.95147C9.88231 9.72643 9.59838 9.6 9.30233 9.6H4.83721C4.54115 9.6 4.25722 9.72643 4.04788 9.95147C3.83854 10.1765 3.72093 10.4817 3.72093 10.8V29.6H1.11628C0.820223 29.6 0.536294 29.7264 0.326951 29.9515C0.117608 30.1765 0 30.4817 0 30.8C0 31.1183 0.117608 31.4235 0.326951 31.6485C0.536294 31.8736 0.820223 32 1.11628 32H30.8837C31.1798 32 31.4637 31.8736 31.673 31.6485C31.8824 31.4235 32 31.1183 32 30.8C32 30.4817 31.8824 30.1765 31.673 29.9515C31.4637 29.7264 31.1798 29.6 30.8837 29.6H28.2791V18.8Z" fill="white"/>
</svg>
