<svg width="40" height="39" viewBox="0 0 40 39" fill="none" xmlns="http://www.w3.org/2000/svg">
<path d="M12.8025 20.6689L20.8194 28.4595C21.1466 28.7775 21.3037 29.1484 21.2906 29.5724C21.2775 29.9964 21.1068 30.3674 20.7785 30.6853C20.4513 30.9768 20.0695 31.1295 19.6332 31.1432C19.1969 31.157 18.8152 31.0044 18.4879 30.6853L7.68961 20.1919C7.52599 20.0329 7.40983 19.8607 7.34111 19.6752C7.2724 19.4897 7.23913 19.291 7.24131 19.079C7.24349 18.867 7.27785 18.6683 7.34439 18.4828C7.41092 18.2973 7.52654 18.125 7.69124 17.966L18.4896 7.47263C18.7895 7.18114 19.1647 7.0354 19.6152 7.0354C20.0657 7.0354 20.454 7.18114 20.7801 7.47263C21.1074 7.79061 21.271 8.16848 21.271 8.60623C21.271 9.04399 21.1074 9.42133 20.7801 9.73825L12.8025 17.4891H31.086C31.5496 17.4891 31.9384 17.6417 32.2525 17.947C32.5667 18.2522 32.7232 18.6296 32.7221 19.079C32.721 19.5284 32.5639 19.9063 32.2509 20.2126C31.9379 20.5189 31.5496 20.671 31.086 20.6689H12.8025Z" fill="#182F51"/>
</svg>
